<?xml version="1.0" encoding="UTF-8" standalone="no"?>
<!-- Created with Inkscape (http://www.inkscape.org/) -->

<svg
   width="115.15408mm"
   height="101.56556mm"
   viewBox="0 0 115.15408 101.56556"
   version="1.1"
   id="svg1"
   xml:space="preserve"
   sodipodi:docname="bitmap.svg"
   inkscape:version="1.3.2 (091e20e, 2023-11-25, custom)"
   inkscape:export-filename="bitmap.svg"
   inkscape:export-xdpi="96"
   inkscape:export-ydpi="96"
   xmlns:inkscape="http://www.inkscape.org/namespaces/inkscape"
   xmlns:sodipodi="http://sodipodi.sourceforge.net/DTD/sodipodi-0.dtd"
   xmlns="http://www.w3.org/2000/svg"
   xmlns:svg="http://www.w3.org/2000/svg"><sodipodi:namedview
     id="namedview1"
     pagecolor="#ffffff"
     bordercolor="#000000"
     borderopacity="0.25"
     inkscape:showpageshadow="2"
     inkscape:pageopacity="0.0"
     inkscape:pagecheckerboard="0"
     inkscape:deskcolor="#d1d1d1"
     inkscape:document-units="mm"
     inkscape:zoom="1.2575032"
     inkscape:cx="188.86632"
     inkscape:cy="99.800938"
     inkscape:window-width="1366"
     inkscape:window-height="705"
     inkscape:window-x="-8"
     inkscape:window-y="-8"
     inkscape:window-maximized="1"
     inkscape:current-layer="layer2" /><defs
     id="defs1" /><g
     inkscape:groupmode="layer"
     id="layer2"
     inkscape:label="LogoBitmap"
     transform="translate(-2.2046927,-10.976775)"><path
       style="display:inline;fill:#000000"
       d="m 50.905545,154.83164 c -1.767343,-0.35718 -2.55985,-3.28786 -1.288711,-4.76565 1.084782,-1.26114 25.76402,-1.14947 26.899821,0.12171 1.067737,1.19501 1.067815,2.63293 2.07e-4,3.82811 -0.707993,0.79259 -22.319829,1.48102 -25.611317,0.81583 z m 1.025404,-9.57654 c -2.803737,-0.27929 -4.121749,-3.07459 -2.270338,-4.81504 0.710607,-0.66802 23.679398,-1.28947 25.511424,-0.69024 2.293461,0.75015 2.796561,3.874 0.831433,5.16253 -0.712093,0.46692 -20.060347,0.7424 -24.072519,0.34275 z"
       id="path2"
       transform="translate(-46.597034,-85.691336)"
       sodipodi:nodetypes="ssssscsssc"
       inkscape:label="CentroIzq" /><path
       style="display:inline;fill:#000000"
       d="m 136.52401,154.61448 c -1.69425,-0.92072 -1.94889,-3.50008 -0.46851,-4.74573 1.11051,-0.93444 25.09479,-1.08568 26.6002,-0.16773 1.73194,1.05607 1.73194,3.74539 0,4.80147 -1.11008,0.67689 -24.90457,0.77886 -26.13169,0.11199 z m 2.54766,-9.32518 c -3.94776,-0.14791 -5.92181,-4.11385 -2.66417,-5.35241 1.36101,-0.51745 25.39877,-0.42905 26.20065,0.0964 2.28265,1.49565 1.5293,4.67661 -1.23409,5.21083 -1.07114,0.20708 -17.11394,0.2396 -22.30239,0.0452 z"
       id="path3"
       transform="translate(-46.597034,-85.691336)"
       sodipodi:nodetypes="ssssscscscc"
       inkscape:label="CentroDer" /><path
       style="display:inline;fill:#000000"
       d="m 101.1012,170.10359 c -16.341406,-3.50063 -24.162908,-22.40615 -14.98045,-36.20956 9.15909,-13.76829 29.3886,-14.4629 39.36729,-1.35174 13.53915,17.78931 -2.36126,42.27958 -24.38684,37.5613 z m 10.45104,-6.62831 c 12.17174,-3.79403 16.48747,-18.65973 8.08069,-27.83425 -10.979,-11.98164 -30.939131,-4.65783 -30.800447,11.30135 0.10171,11.70437 11.530237,20.02077 22.719757,16.5329 z"
       id="path4"
       transform="translate(-46.597034,-85.691336)"
       sodipodi:nodetypes="ssssssss"
       inkscape:label="CirculoCentral" /><path
       style="display:inline;fill:#000000"
       d="m 55.774495,136.91081 c -2.989072,-2.77018 3.472384,-15.90373 12.226092,-24.85075 10.690716,-10.9268 32.854513,-19.314529 35.622643,-13.481131 0.70285,1.481151 0.46175,19.109721 -0.27245,19.920481 -1.35647,1.49792 -3.659258,1.54159 -4.81975,0.0914 -0.590776,-0.73826 -0.602302,-0.88053 -0.607566,-7.49941 -0.0063,-7.93845 0.126171,-7.52132 -2.269233,-7.14467 -14.284025,2.24598 -28.733547,14.91052 -33.96195,29.76654 -1.340096,3.80776 -3.815905,5.14551 -5.917786,3.19755 z m 85.726645,0.16885 c -0.5022,-0.3083 -1.13071,-1.26803 -1.94057,-2.96323 -3.38404,-7.08349 -8.76616,-12.63586 -15.97023,-16.47539 -3.87297,-2.06417 -4.57148,-2.98672 -3.96545,-5.23736 2.06161,-7.65621 24.81372,11.15097 26.5796,21.97104 0.38021,2.32965 -2.56012,4.02066 -4.70335,2.70494 z m 11.24281,-0.0581 c -0.36327,-0.3028 -1.07419,-1.72558 -1.74731,-3.49692 -5.30004,-13.94735 -16.1165,-24.17797 -30.26023,-28.6213 -5.2794,-1.65855 -5.08313,-1.88126 -5.08313,5.76784 0,8.32502 -0.26665,9.07305 -3.19268,8.95637 -2.78645,-0.11112 -2.89377,-0.54451 -2.88685,-11.65751 0.008,-12.277401 -0.19408,-11.988633 7.42232,-10.624978 17.85685,3.197128 34.05826,17.011548 39.89809,34.019818 1.09909,3.20104 1.10256,4.58371 0.0138,5.49982 -1.04062,0.87563 -3.20396,0.95713 -4.16403,0.15686 z m -84.887922,-0.0477 c -2.119343,-1.02564 -1.627878,-3.78921 1.676367,-9.42644 6.982755,-11.91297 24.160473,-22.02173 24.160473,-14.21798 0,1.73683 -0.459922,2.18791 -4.253768,4.17198 -7.558625,3.95293 -12.930905,9.37611 -16.246092,16.40002 -1.457231,3.08744 -3.21497,4.09935 -5.33698,3.07242 z"
       id="path1"
       transform="translate(-46.597034,-85.691336)"
       sodipodi:nodetypes="sssssccsssssscssccssscsssccssssss"
       inkscape:label="ParteSuperior" /><path
       style="display:inline;fill:#000000"
       d="m 98.984535,198.10084 c -16.855296,-1.39389 -33.11254,-12.79556 -40.877943,-28.66888 -4.163883,-8.51142 -4.252776,-11.77396 -0.3208,-11.77396 2.102763,0 2.609301,0.50677 3.639149,3.64079 4.531358,13.78977 17.473407,25.77343 31.606469,29.26592 5.44176,1.34474 4.894791,2.12379 4.894791,-6.97168 0,-9.25647 0.156539,-9.79802 2.831129,-9.79445 3.03748,0.004 3.28722,1.00963 3.19731,12.87396 -0.0913,12.04775 -6.3e-4,11.83926 -4.970105,11.4283 z m 11.647915,-0.95141 c -1.09813,-1.09814 -1.74357,-20.72026 -0.72544,-22.05441 0.90221,-1.18225 2.33028,-1.49544 3.91946,-0.85958 1.75983,0.70415 1.82681,1.05755 1.82681,9.63786 0,8.40457 -0.39589,7.82298 4.46,6.552 14.04177,-3.67527 26.90129,-15.78265 31.39501,-29.55873 0.99817,-3.06004 1.44019,-3.41992 3.96479,-3.22804 3.36785,0.25597 3.04673,4.25483 -0.98953,12.3226 -7.02052,14.03277 -20.24024,24.10978 -35.91985,27.38066 -5.23187,1.09141 -6.68266,1.05622 -7.93125,-0.19236 z M 90.120993,184.61187 C 84.810244,183.38686 75.377816,176.29858 71.380403,170.52868 65.898412,162.61594 65.0277,157.658 69.120057,157.658 c 1.911003,0 2.416782,0.48548 4.198361,4.02984 3.778349,7.51682 9.127415,12.76789 16.529931,16.2271 3.186004,1.48883 3.844519,2.17052 3.844519,3.9798 0,1.29229 -0.849359,2.75076 -1.60194,2.75076 -0.113775,0 -0.36543,0.0474 -0.559233,0.10525 -0.193803,0.0579 -0.828619,-0.005 -1.410702,-0.13888 z m 30.329357,-0.68485 c -2.11622,-2.11621 -1.32643,-4.05405 2.3911,-5.86688 7.67163,-3.74101 13.49763,-9.56995 16.60952,-16.61789 2.49468,-5.65006 8.15169,-5.0897 6.49251,0.64312 -3.11366,10.75836 -21.13573,26.19905 -25.49313,21.84165 z"
       id="path5"
       transform="translate(-46.597033,-85.691337)"
       sodipodi:nodetypes="sssssscsssssssssssscssssssccsssss"
       inkscape:label="ParteInferior" /></g></svg>
