<?xml version="1.0" encoding="UTF-8" standalone="no"?>
<!-- Created with Inkscape (http://www.inkscape.org/) -->

<svg
   width="83.215866mm"
   height="96.465363mm"
   viewBox="0 0 83.215866 96.465363"
   version="1.1"
   id="svg1"
   xml:space="preserve"
   inkscape:version="1.3.2 (091e20e, 2023-11-25, custom)"
   sodipodi:docname="logoApple.svg"
   inkscape:export-filename="logoApple.svg"
   inkscape:export-xdpi="96"
   inkscape:export-ydpi="96"
   xmlns:inkscape="http://www.inkscape.org/namespaces/inkscape"
   xmlns:sodipodi="http://sodipodi.sourceforge.net/DTD/sodipodi-0.dtd"
   xmlns="http://www.w3.org/2000/svg"
   xmlns:svg="http://www.w3.org/2000/svg"><sodipodi:namedview
     id="namedview1"
     pagecolor="#ffffff"
     bordercolor="#000000"
     borderopacity="0.25"
     inkscape:showpageshadow="2"
     inkscape:pageopacity="0.0"
     inkscape:pagecheckerboard="0"
     inkscape:deskcolor="#d1d1d1"
     inkscape:document-units="mm"
     inkscape:zoom="0.70710678"
     inkscape:cx="113.13708"
     inkscape:cy="239.7092"
     inkscape:window-width="1366"
     inkscape:window-height="705"
     inkscape:window-x="-8"
     inkscape:window-y="-8"
     inkscape:window-maximized="1"
     inkscape:current-layer="layer2" /><defs
     id="defs1"><inkscape:path-effect
       effect="spiro"
       id="path-effect2"
       is_visible="true"
       lpeversion="1" /><inkscape:path-effect
       effect="spiro"
       id="path-effect4"
       is_visible="true"
       lpeversion="1" /><inkscape:path-effect
       effect="spiro"
       id="path-effect3"
       is_visible="true"
       lpeversion="1" /><inkscape:path-effect
       effect="bspline"
       id="path-effect1"
       is_visible="true"
       lpeversion="1.3"
       weight="33.333333"
       steps="2"
       helper_size="0"
       apply_no_weight="true"
       apply_with_weight="true"
       only_selected="false"
       uniform="false" /></defs><g
     inkscape:groupmode="layer"
     id="layer2"
     inkscape:label="Logo vectorial"
     style="display:inline"
     transform="translate(-60.464993,-84.788215)"><path
       style="opacity:1;fill:#000000;stroke-width:0.264583"
       d="m 101.72544,112.83374 c 1.82459,-0.18705 3.56876,-0.83663 5.2525,-1.56404 1.68374,-0.72742 3.33712,-1.54073 5.08883,-2.08444 3.50142,-1.0868 7.30134,-1.0483 10.8642,-0.18394 2.50616,0.608 4.91275,1.61683 7.11593,2.95718 2.45577,1.49401 4.65972,3.4008 6.49141,5.61615 -3.23587,1.90222 -5.97499,4.64135 -7.87721,7.87722 -3.1716,5.39524 -3.898,12.20997 -1.75049,18.0884 2.05304,5.61984 6.69444,10.23378 12.32637,12.25344 -2.28458,5.41046 -5.09822,10.59736 -8.38776,15.46267 -1.64628,2.43489 -3.43704,4.81642 -5.72145,6.66585 -2.28441,1.84944 -5.12466,3.14132 -8.06367,3.10773 -2.40256,-0.0275 -4.70183,-0.92137 -6.92101,-1.84239 -2.21919,-0.92102 -4.46986,-1.89469 -6.86411,-2.09622 -1.83404,-0.15438 -3.681454,0.15426 -5.451834,0.65753 -1.77038,0.50327 -3.478745,1.19925 -5.20378,1.84095 -1.599893,0.59515 -3.224915,1.14661 -4.906123,1.44224 -1.681208,0.29563 -3.429344,0.32865 -5.080001,-0.10631 -1.549501,-0.4083 -2.972775,-1.21845 -4.228598,-2.21373 -1.255823,-0.99527 -2.353713,-2.17459 -3.395698,-3.39194 -2.144357,-2.50525 -4.074821,-5.1936 -5.761994,-8.02697 -1.635714,-2.74695 -3.041681,-5.62772 -4.263969,-8.58192 -4.017721,-9.7106 -6.022841,-20.65419 -3.209233,-30.77948 1.787607,-6.43304 5.655768,-12.46031 11.378191,-15.90028 5.490942,-3.30082 12.491348,-3.96221 18.504181,-1.7505 1.670002,0.61428 3.262401,1.43513 4.959726,1.9693 1.645297,0.5178 3.389732,0.7594 5.105592,0.5835 z"
       id="path3"
       inkscape:path-effect="#path-effect3"
       inkscape:original-d="m 101.72544,112.83374 c 4.23036,-0.70506 8.52143,-2.67707 10.34133,-3.64848 1.55856,-0.83191 7.92169,-1.11006 10.8642,-0.18394 3.76914,1.1863 5.21919,2.45767 7.11593,2.95718 5.17161,1.36195 6.49141,5.61615 6.49141,5.61615 0,0 -5.54322,5.25148 -7.87721,7.87722 -2.33399,2.62573 -1.16699,12.05893 -1.75049,18.0884 -0.5835,6.02947 12.32637,12.25344 12.32637,12.25344 0,0 -4.91871,10.7208 -8.38776,15.46267 -3.37943,4.61935 -9.2144,6.56435 -13.78512,9.77358 -4.57073,3.20924 -9.0199,-2.57711 -13.78512,-3.93861 -4.765229,-1.36149 -6.765634,1.42873 -10.655614,2.49848 -3.889981,1.06974 -7.562763,1.57335 -9.986124,1.33593 -1.536844,-0.15056 -6.077278,-3.83503 -7.624296,-5.60567 -1.293439,-1.4804 -4.530527,-6.82421 -5.761994,-8.02697 -3.051664,-2.98053 -0.665737,-1.8717 -4.263969,-8.58192 -3.59823,-6.71021 -3.500981,-20.47103 -3.209233,-30.77948 0.291748,-10.30844 6.80747,-11.91306 11.378191,-15.90028 4.570727,-3.98723 13.728833,-3.39362 18.504181,-1.7505 5.38407,1.85256 1.902444,1.319 4.959726,1.9693 2.400846,0.55919 3.355107,0.778 5.105592,0.5835 z"
       sodipodi:nodetypes="cssscsscssssssssssscc"
       inkscape:label="manzana" /><path
       style="opacity:1;fill:#000000;stroke-width:0.264583"
       d="m 118.51783,84.788215 c 0.82988,5.486029 -0.87668,11.303854 -4.53854,15.472305 -3.59196,4.08888 -8.99833,6.52175 -14.440813,6.49836 -0.06832,-5.04724 1.677903,-10.100128 4.847983,-14.028217 3.47647,-4.307737 8.64418,-7.212217 14.13137,-7.942448 z"
       id="path4"
       inkscape:path-effect="#path-effect4"
       inkscape:original-d="m 118.51783,84.788215 c 0,0 -2.95693,10.314869 -4.53854,15.472305 -1.58161,5.15743 -14.440813,6.49836 -14.440813,6.49836 0,0 3.197613,-9.317761 4.847983,-14.028217 1.65038,-4.710457 14.33767,-7.942448 14.13137,-7.942448 z"
       inkscape:label="hoja" /><path
       style="fill:#000000;stroke-width:0.7"
       d="m 136.53277,117.56871 c 2.746,2.92861 4.80127,6.50073 5.95306,10.34659 1.45593,4.86137 1.46045,10.06984 0.66145,15.08125 -0.706,4.42809 -2.0299,8.75722 -3.92138,12.82277 -3.98753,-0.87861 -7.68857,-3.01367 -10.44536,-6.02572 -2.75679,-3.01206 -4.5566,-6.88721 -5.07958,-10.93676 -0.5726,-4.43381 0.39728,-9.05192 2.70519,-12.88077 2.30791,-3.82884 5.93858,-6.84312 10.12662,-8.40736 z"
       id="path1"
       inkscape:path-effect="#path-effect2"
       inkscape:original-d="m 136.53277,117.56871 c 0,0 3.92631,6.89942 5.95306,10.34659 2.02675,3.44716 0.48506,10.05416 0.66145,15.08125 0.17639,5.02708 -3.92138,12.82277 -3.92138,12.82277 0,0 -10.34882,-11.31279 -15.52494,-16.96248 -5.17612,-5.64969 12.69952,-21.42042 12.83181,-21.28813 z"
       sodipodi:nodetypes="csscsc"
       inkscape:label="mordido" /></g></svg>
