<?xml version="1.0" encoding="UTF-8" standalone="no"?>
<!-- Created with Inkscape (http://www.inkscape.org/) -->

<svg
   width="59.888767mm"
   height="62.069916mm"
   viewBox="0 0 59.888767 62.069916"
   version="1.1"
   id="svg1"
   xml:space="preserve"
   inkscape:export-filename="logoCustom.svg"
   inkscape:export-xdpi="96"
   inkscape:export-ydpi="96"
   sodipodi:docname="logoCustom.svg"
   inkscape:version="1.3.2 (091e20e, 2023-11-25, custom)"
   xmlns:inkscape="http://www.inkscape.org/namespaces/inkscape"
   xmlns:sodipodi="http://sodipodi.sourceforge.net/DTD/sodipodi-0.dtd"
   xmlns="http://www.w3.org/2000/svg"
   xmlns:svg="http://www.w3.org/2000/svg"><sodipodi:namedview
     id="namedview1"
     pagecolor="#ffffff"
     bordercolor="#000000"
     borderopacity="0.25"
     inkscape:showpageshadow="2"
     inkscape:pageopacity="0.0"
     inkscape:pagecheckerboard="0"
     inkscape:deskcolor="#d1d1d1"
     inkscape:document-units="mm"
     inkscape:zoom="1.2089632"
     inkscape:cx="-3.7221977"
     inkscape:cy="103.80796"
     inkscape:window-width="1366"
     inkscape:window-height="705"
     inkscape:window-x="-8"
     inkscape:window-y="-8"
     inkscape:window-maximized="1"
     inkscape:current-layer="layer1" /><defs
     id="defs1" /><g
     inkscape:label="Logo"
     inkscape:groupmode="layer"
     id="layer1"
     transform="translate(-34.752358,-110.99155)"><circle
       style="fill:#000000;stroke-width:0.320519"
       id="circle2"
       cx="91.807312"
       cy="113.82536"
       r="2.833813" /><circle
       style="fill:#000000;stroke-width:0.50201"
       id="circle3"
       cx="87.144569"
       cy="122.43193"
       r="4.4384298" /><circle
       style="display:inline;fill:#000000;stroke-width:0.7"
       id="circle1"
       cx="75.917427"
       cy="129.14215"
       r="6.188921"
       inkscape:label="circle4" /><path
       d="m 59.043424,125.49415 c -4.098178,-0.006 -7.532273,0.82261 -11.266495,2.72025 -5.962214,3.02983 -10.808915,9.11931 -12.380123,15.55512 -0.575205,2.35607 -0.642205,2.94012 -0.644405,5.61516 -0.0022,2.67144 0.07952,3.47623 0.552421,5.44411 0.966285,4.02099 2.730807,7.40216 5.413623,10.37405 3.997733,4.42848 9.930289,7.33508 15.94838,7.81399 1.695924,0.13496 4.186833,-0.0433 6.111255,-0.4377 3.614328,-0.74074 7.012911,-2.36746 9.872783,-4.72478 0.96427,-0.79482 2.744423,-2.59007 3.502111,-3.53208 1.257773,-1.56374 2.741337,-4.11553 3.483509,-5.99137 0.906266,-2.29061 1.651588,-5.36135 1.786454,-7.36234 0.04191,-0.62173 0.02751,-0.71243 -0.157096,-0.98443 -0.545669,-0.80402 -1.638528,-0.75578 -2.058273,0.091 -0.08019,0.16177 -0.208347,0.71764 -0.284737,1.23558 -0.439692,2.98139 -1.20298,4.73038 -3.12074,7.14892 -0.850194,1.0722 -2.405945,2.62741 -3.33778,3.33675 -2.755952,2.09792 -5.930426,3.411 -9.334314,3.86178 -1.152212,0.15258 -3.683944,0.12939 -4.836914,-0.0444 -2.866352,-0.43217 -5.613807,-1.43619 -7.932333,-2.89853 -4.712115,-2.97203 -8.186866,-8.15157 -9.345166,-13.9299 -0.3471,-1.73156 -0.430237,-2.80905 -0.372587,-4.82244 0.06937,-2.42262 0.348472,-4.0121 1.040247,-5.92315 0.372781,-1.02983 1.145601,-2.54379 1.650028,-3.23185 1.793619,-2.4466 5.43811,-4.83086 9.114173,-5.96242 2.154795,-0.66329 4.022977,-0.93825 6.588745,-0.96945 2.066151,-0.0252 2.101558,-0.0343 2.538863,-0.67231 0.359086,-0.52386 0.135931,-1.20896 -0.499711,-1.53324 -0.307208,-0.15677 -0.504569,-0.17322 -2.031918,-0.17622 z m -21.364587,19.17299 c 0.05225,-0.0351 0.05699,0.38524 0.03824,1.24488 -0.08219,3.76879 0.561574,6.78003 2.161108,10.1074 1.18171,2.45819 2.611219,4.41266 4.72891,6.46627 3.253302,3.15485 7.507157,5.25707 12.059729,5.95984 1.419462,0.21929 4.871214,0.21857 6.274553,-0.001 3.13865,-0.49116 6.36264,-1.68989 8.8222,-3.28042 0.393021,-0.25415 0.70157,-0.42737 0.68523,-0.38447 -0.04066,0.10664 -0.828318,0.809 -1.664498,1.48414 -2.848608,2.30002 -6.20797,3.7136 -10.051066,4.22869 v -5.2e-4 c -0.82037,0.1099 -3.727047,0.15149 -4.537708,0.0646 -3.045856,-0.32623 -6.191222,-1.38736 -8.795845,-2.96674 -5.938097,-3.6007 -9.500361,-9.19477 -10.214881,-16.0414 -0.147246,-1.41094 -0.0626,-4.08637 0.170533,-5.39295 0.171745,-0.96253 0.27124,-1.45314 0.323494,-1.48828 z"
       style="display:inline;stroke-width:0.323568"
       id="path9" /><path
       d="m 59.56484,132.88078 c -1.11289,-0.0267 -2.547806,0.0486 -3.369304,0.19637 -4.064648,0.73108 -7.621485,3.02476 -9.953914,6.41924 -1.985965,2.89026 -2.889503,6.14428 -2.632914,9.47901 0.157622,2.04851 0.572834,3.59203 1.457275,5.41724 1.465521,3.0244 3.973658,5.5768 6.945829,7.06831 1.522747,0.76415 3.518171,1.34338 5.264278,1.52755 3.915008,0.41292 7.871019,-0.75598 10.981242,-3.24425 1.958907,-1.56718 3.381817,-3.33835 4.418852,-5.4994 2.12557,-4.42942 1.91193,-9.45691 -0.581877,-13.69426 -2.517181,-4.27705 -6.663068,-7.00582 -11.558467,-7.6078 -0.264811,-0.0326 -0.600037,-0.0531 -0.971,-0.062 z m -0.883667,2.50527 c 0.889963,-0.008 1.776471,0.0444 2.351794,0.15968 2.605741,0.52229 4.915688,1.76222 6.804753,3.65301 2.344605,2.34675 3.593648,5.10533 3.74344,8.26668 0.105589,2.22838 -0.430641,4.4679 -1.532723,6.39806 -2.050197,3.59067 -5.397735,5.93649 -9.313126,6.52673 -0.728762,0.1098 -2.69415,0.15165 -3.255615,0.0693 -0.117715,-0.0173 -0.502617,-0.0738 -0.855762,-0.12558 -0.937641,-0.13747 -2.531012,-0.68712 -3.593579,-1.2392 -0.943288,-0.49011 -2.224614,-1.38757 -2.902149,-2.03347 -0.501815,-0.47838 -1.542684,-1.72495 -1.986958,-2.37918 -0.563139,-0.82925 -1.239774,-2.25977 -1.524972,-3.22357 -0.835691,-2.82415 -0.640919,-5.92591 0.534334,-8.50181 1.72162,-3.77342 5.120404,-6.50844 9.157581,-7.36906 0.589535,-0.12567 1.483018,-0.19363 2.372982,-0.20154 z"
       style="display:inline;stroke-width:0.323568"
       id="path1"
       inkscape:label="path10"
       sodipodi:nodetypes="ccsscscssscccccssscccsscssscc"
       transform="translate(1.2708333e-6)" /><path
       d="m 78.286694,138.16986 c 0.20516,0.006 0.413714,0.0662 0.604615,0.19327 0.390626,0.26005 0.967988,1.43767 1.521354,3.10265 0.437573,1.31659 0.952396,3.48199 0.952396,4.00493 0,0.72891 -0.930549,1.36637 -1.626257,1.11414 -0.07063,-0.0256 -0.249728,-0.16075 -0.397908,-0.30076 -0.28419,-0.26854 -0.362082,-0.493 -0.588078,-1.69395 -0.217933,-1.15809 -0.611542,-2.43033 -1.159619,-3.74861 -0.292212,-0.70285 -0.508496,-1.35121 -0.508496,-1.52394 0,-0.68387 0.586515,-1.16446 1.201993,-1.14773 z"
       style="display:inline;stroke-width:0.323568"
       id="path10"
       inkscape:label="path11"
       sodipodi:nodetypes="ccssscsssc"
       transform="translate(1.2708333e-6)" /></g></svg>
