<?xml version="1.0" encoding="UTF-8" standalone="no"?>
<!-- Created with Inkscape (http://www.inkscape.org/) -->

<svg
   width="81.090988mm"
   height="77.35096mm"
   viewBox="0 0 81.090988 77.35096"
   version="1.1"
   id="svg1"
   xml:space="preserve"
   inkscape:version="1.3.2 (091e20e, 2023-11-25, custom)"
   sodipodi:docname="surf.svg"
   inkscape:export-filename="surf.svg"
   inkscape:export-xdpi="96"
   inkscape:export-ydpi="96"
   xmlns:inkscape="http://www.inkscape.org/namespaces/inkscape"
   xmlns:sodipodi="http://sodipodi.sourceforge.net/DTD/sodipodi-0.dtd"
   xmlns="http://www.w3.org/2000/svg"
   xmlns:svg="http://www.w3.org/2000/svg"><sodipodi:namedview
     id="namedview1"
     pagecolor="#ffffff"
     bordercolor="#000000"
     borderopacity="0.25"
     inkscape:showpageshadow="2"
     inkscape:pageopacity="0.0"
     inkscape:pagecheckerboard="0"
     inkscape:deskcolor="#d1d1d1"
     inkscape:document-units="mm"
     inkscape:zoom="1.4142136"
     inkscape:cx="120.91526"
     inkscape:cy="151.6744"
     inkscape:window-width="1366"
     inkscape:window-height="705"
     inkscape:window-x="-8"
     inkscape:window-y="-8"
     inkscape:window-maximized="1"
     inkscape:current-layer="layer5" /><defs
     id="defs1"><inkscape:path-effect
       effect="spiro"
       id="path-effect8"
       is_visible="true"
       lpeversion="1" /><inkscape:path-effect
       effect="spiro"
       id="path-effect6"
       is_visible="true"
       lpeversion="1" /><inkscape:path-effect
       effect="spiro"
       id="path-effect5"
       is_visible="true"
       lpeversion="1" /><inkscape:path-effect
       effect="spiro"
       id="path-effect4"
       is_visible="true"
       lpeversion="1" /><inkscape:path-effect
       effect="spiro"
       id="path-effect3"
       is_visible="true"
       lpeversion="1" /><inkscape:path-effect
       effect="spiro"
       id="path-effect2"
       is_visible="true"
       lpeversion="1" /><inkscape:path-effect
       effect="spiro"
       id="path-effect59"
       is_visible="true"
       lpeversion="1" /><inkscape:path-effect
       effect="spiro"
       id="path-effect58"
       is_visible="true"
       lpeversion="1" /><inkscape:path-effect
       effect="spiro"
       id="path-effect55"
       is_visible="true"
       lpeversion="1" /><inkscape:path-effect
       effect="spiro"
       id="path-effect52"
       is_visible="true"
       lpeversion="1" /><inkscape:path-effect
       effect="spiro"
       id="path-effect46"
       is_visible="true"
       lpeversion="1" /><inkscape:path-effect
       effect="spiro"
       id="path-effect1"
       is_visible="true"
       lpeversion="1" /><inkscape:path-effect
       effect="spiro"
       id="path-effect1-0"
       is_visible="true"
       lpeversion="1" /></defs><g
     inkscape:groupmode="layer"
     id="layer5"
     inkscape:label="Logo surf vectorial "
     style="display:inline"
     transform="translate(-64.640635,-109.84756)"><circle
       style="fill:#000000;stroke-width:0.614909"
       id="path1"
       cx="105.5291"
       cy="152.24498"
       r="0.7916829"
       inkscape:label="centro" /><g
       id="g21"
       inkscape:transform-center-x="7.7875658"
       inkscape:transform-center-y="-20.907159"
       inkscape:label="GrupoCurvas"
       style="display:inline"><path
         id="path58"
         style="color:#000000;fill:#000000;stroke:none;stroke-width:0.997844;-inkscape-stroke:none"
         d="m 100.68753,117.80728 c -1.982053,0.44013 -3.882336,1.23385 -5.583638,2.34301 -2.840221,1.85168 -5.073617,4.53857 -6.506063,7.58197 -2.074359,4.4072 -2.45007,9.67785 -0.546737,14.2229 1.201296,2.86863 3.226372,5.29924 5.580022,7.23418 2.109494,1.73424 4.573939,3.14525 7.310666,3.76205 1.37365,0.31001 2.79164,0.41232 4.19509,0.30437 l -0.13849,-1.79472 c -0.0347,0.003 -0.0696,0.002 -0.10439,0.004 l 0.003,-0.0465 c -1.35481,-0.0952 -2.68843,-0.51102 -3.85764,-1.2051 -1.052974,-0.62508 -1.974632,-1.47745 -2.652554,-2.49235 -0.760115,-1.13796 -1.212325,-2.48746 -1.279509,-3.85403 -0.08289,-1.68595 0.422611,-3.39862 1.366842,-4.80488 0.695736,-1.03618 1.631851,-1.91475 2.726451,-2.48253 0.61616,-0.31962 1.28265,-0.54042 1.9668,-0.65423 -0.15454,-0.20406 -0.29947,-0.41514 -0.4377,-0.63045 -0.64228,0.13682 -1.2665,0.35878 -1.85001,0.66146 -1.211226,0.62829 -2.227414,1.59012 -2.982767,2.71508 -1.026078,1.52817 -1.578672,3.38147 -1.487764,5.23069 0.07366,1.49822 0.56751,2.96569 1.398364,4.20956 0.466231,0.69799 1.03474,1.32119 1.675866,1.85622 -1.660745,-1.088 -2.939004,-2.74496 -3.737239,-4.58939 -0.710035,-1.64062 -1.055815,-3.44982 -0.859379,-5.20691 0.195452,-1.74828 0.92874,-3.43311 2.017448,-4.8302 1.144209,-1.46832 2.682853,-2.62819 4.406451,-3.33158 -0.0629,-0.22753 -0.1224,-0.45555 -0.17622,-0.68419 -1.873633,0.74648 -3.540598,1.99512 -4.780585,3.58634 -1.162216,1.49142 -1.952799,3.29058 -2.164209,5.1816 -0.212385,1.89973 0.162716,3.82615 0.914156,5.56245 0.634051,1.46505 1.555514,2.82521 2.733166,3.91035 -0.221146,-0.15126 -0.437935,-0.30885 -0.646472,-0.47697 -1.817573,-1.46529 -3.127411,-3.53601 -3.812687,-5.78311 -0.64319,-2.1091 -0.750607,-4.38265 -0.308508,-6.54275 0.364869,-1.78277 1.106616,-3.49407 2.214852,-4.92425 1.34659,-1.73777 3.245782,-3.04769 5.345927,-3.69848 -0.0221,-0.23739 -0.0408,-0.47521 -0.0563,-0.71365 -2.300423,0.67699 -4.373202,2.08654 -5.842535,3.9827 -1.181096,1.5242 -1.963119,3.33372 -2.347661,5.2126 -0.46588,2.27632 -0.353204,4.66456 0.324528,6.88692 0.432563,1.41841 1.10188,2.77146 1.984375,3.96565 -0.879867,-0.90363 -1.645832,-1.92472 -2.276346,-3.01997 -1.400829,-2.43336 -2.1581,-5.25176 -2.044837,-8.04706 0.09625,-2.37551 0.822876,-4.72733 2.099614,-6.73034 1.806224,-2.83366 4.741332,-4.93275 8.000542,-5.74848 -0.003,-0.16664 -0.005,-0.33789 -0.009,-0.50333 v -0.002 c -0.001,-0.0698 -0.002,-0.14078 -0.003,-0.21084 -3.500868,0.83103 -6.643112,3.05151 -8.578287,6.08749 -1.345484,2.11084 -2.1074,4.58121 -2.208651,7.08018 -0.118047,2.91338 0.659941,5.82863 2.097546,8.35402 -0.835776,-1.07393 -1.539664,-2.23561 -2.058789,-3.47524 -1.677214,-4.00509 -1.357455,-8.77964 0.515731,-12.75943 1.299071,-2.76003 3.326733,-5.19066 5.859591,-6.84196 1.355407,-0.88366 2.857431,-1.54342 4.422989,-1.95544 0.0361,-0.63327 0.0938,-1.26606 0.17828,-1.89549 z"
         inkscape:label="path11" /><path
         id="path71"
         style="color:#000000;display:inline;fill:#000000;stroke:none;stroke-width:0.997844;-inkscape-stroke:none"
         d="m 105.13657,153.25589 -0.13824,-1.79476 c -0.0347,0.003 -0.0695,0.002 -0.10426,0.004 l 0.003,-0.0469 c -1.35481,-0.0952 -2.68847,-0.51071 -3.85768,-1.20479 -1.05297,-0.62508 -1.974716,-1.4774 -2.652639,-2.4923 -0.760114,-1.13795 -1.212146,-2.48758 -1.27933,-3.85415 -0.08289,-1.68595 0.422441,-3.39878 1.366672,-4.80504 0.695737,-1.03619 1.631917,-1.91458 2.726517,-2.48236 0.61616,-0.31962 1.28258,-0.54029 1.96673,-0.6541 -0.15454,-0.20406 -0.29945,-0.41524 -0.43768,-0.63055 -0.64228,0.13682 -1.26674,0.35877 -1.85025,0.66145 -1.211221,0.62829 -2.227008,1.58991 -2.982362,2.71486 -1.026078,1.52817 -1.578678,3.38171 -1.48777,5.23093 0.07366,1.49822 0.567225,2.96539 1.398079,4.20926 0.466169,0.69789 1.03466,1.32126 1.675681,1.85624 -1.660528,-1.088 -2.938562,-2.74502 -3.736726,-4.58928 -0.710035,-1.64063 -1.055825,-3.44973 -0.85939,-5.20682 0.195452,-1.74828 0.929029,-3.43321 2.017737,-4.8303 1.144209,-1.46832 2.682366,-2.62804 4.405961,-3.33143 -0.0629,-0.22753 -0.12195,-0.45551 -0.17577,-0.68415 -1.873816,0.74646 -3.541031,1.99476 -4.781116,3.5861 -1.162216,1.49142 -1.952655,3.29088 -2.164065,5.1819 -0.212385,1.89974 0.162604,3.8262 0.914044,5.5625 0.634483,1.46605 1.557083,2.82694 2.735888,3.91245 -0.222113,-0.15182 -0.439787,-0.31063 -0.64919,-0.47945 -1.817573,-1.46528 -3.127283,-3.53585 -3.812559,-5.78295 -0.643191,-2.1091 -0.750632,-4.38271 -0.308533,-6.54282 0.364869,-1.78276 1.106389,-3.49398 2.214625,-4.92416 1.34659,-1.73777 3.245907,-3.04747 5.346056,-3.69825 -0.0221,-0.23739 -0.0409,-0.47564 -0.0564,-0.71408 -2.300423,0.677 -4.37316,2.08678 -5.842493,3.98293 -1.181096,1.5242 -1.963046,3.33352 -2.347587,5.2124 -0.465881,2.27631 -0.353445,4.66479 0.324287,6.88715 0.432872,1.41943 1.103352,2.77324 1.986786,3.96806 -0.880878,-0.90423 -1.647482,-1.92653 -2.27857,-3.02277 -1.400828,-2.43336 -2.15813,-5.25118 -2.044867,-8.04647 0.09625,-2.37552 0.822985,-4.72775 2.099723,-6.73076 1.806224,-2.83367 4.741155,-4.93237 8.000371,-5.74809 -0.003,-0.16664 -0.005,-0.3384 -0.009,-0.50384 l -8e-5,-0.002 c -0.001,-0.07 -0.002,-0.1411 -0.003,-0.21132 -3.501046,0.83094 -6.643526,3.05175 -8.578785,6.08786 -1.345483,2.11085 -2.107451,4.58115 -2.208702,7.08013 -0.118062,2.91375 0.660519,5.82938 2.09848,8.355 -0.835995,-1.0741 -1.540664,-2.23623 -2.059892,-3.47612 -1.677214,-4.00508 -1.356954,-8.77946 0.516232,-12.75926 1.29907,-2.76002 3.326276,-5.19065 5.859134,-6.84195 1.355407,-0.88366 2.857758,-1.54336 4.423313,-1.95538 0.0361,-0.63327 0.0937,-1.26616 0.17814,-1.89559 -1.982049,0.44013 -3.882165,1.23369 -5.583467,2.34285 -2.840221,1.85168 -5.073725,4.53885 -6.506171,7.58225 -2.074359,4.4072 -2.45005,9.67739 -0.546717,14.22244 1.201296,2.86863 3.226423,5.29963 5.580073,7.23457 2.109495,1.73424 4.57389,3.14526 7.310612,3.76206 1.37365,0.31001 2.79144,0.41238 4.19489,0.30443 z"
         transform="rotate(-144,105.30643,152.47962)"
         inkscape:label="path12" /><path
         id="path65"
         style="color:#000000;display:inline;fill:#000000;stroke:none;stroke-width:0.997844;-inkscape-stroke:none"
         d="m 94.43877,149.82356 c 1.922321,1.44032 4.108193,2.58799 6.50283,3.12769 1.37365,0.31001 2.79168,0.41244 4.19513,0.30449 l -0.13847,-1.79458 c -0.0347,0.003 -0.0697,0.002 -0.10444,0.004 l 0.003,-0.0464 c -1.35481,-0.0952 -2.68837,-0.51109 -3.85758,-1.20517 -1.052969,-0.62508 -1.974323,-1.47737 -2.652246,-2.49227 -0.760114,-1.13796 -1.212485,-2.48739 -1.279669,-3.85396 -0.08289,-1.68594 0.422371,-3.39883 1.366602,-4.80509 0.695737,-1.03619 1.632093,-1.91479 2.726693,-2.48257 0.61616,-0.31962 1.28256,-0.54027 1.96671,-0.65408 -0.15454,-0.20406 -0.29937,-0.41498 -0.4376,-0.63029 -0.64228,0.13682 -1.2666,0.35883 -1.85011,0.66151 -1.211221,0.62829 -2.227568,1.58984 -2.982921,2.71479 -1.026078,1.52817 -1.578391,3.38161 -1.487483,5.23083 0.07366,1.49822 0.567296,2.96573 1.39815,4.2096 0.466714,0.69871 1.035968,1.32243 1.67791,1.85783 -1.661776,-1.08798 -2.940485,-2.74613 -3.73906,-4.59134 -0.710035,-1.64063 -1.055899,-3.44978 -0.859463,-5.20687 0.195451,-1.74828 0.929124,-3.43309 2.017832,-4.83018 1.144209,-1.46831 2.682602,-2.62787 4.406195,-3.33126 -0.0629,-0.22753 -0.12226,-0.45565 -0.17608,-0.68429 -1.873816,0.74646 -3.540872,1.99461 -4.780956,3.58596 -1.162216,1.49142 -1.952719,3.29086 -2.164129,5.18187 -0.212385,1.89974 0.162828,3.82594 0.914268,5.56224 0.63446,1.466 1.556777,2.82719 2.735523,3.91268 -0.222085,-0.1518 -0.439587,-0.31037 -0.648964,-0.47916 -1.817573,-1.46529 -3.12749,-3.53605 -3.812766,-5.78315 -0.643191,-2.1091 -0.750653,-4.38264 -0.308554,-6.54275 0.36487,-1.78277 1.106737,-3.49374 2.214973,-4.92392 1.346591,-1.73777 3.245641,-3.04794 5.345785,-3.69873 -0.0221,-0.23739 -0.0409,-0.47516 -0.0564,-0.7136 -2.300423,0.677 -4.372735,2.0865 -5.842069,3.98266 -1.181095,1.5242 -1.963421,3.33359 -2.347963,5.21247 -0.465881,2.27632 -0.353095,4.66487 0.324637,6.88723 0.43286,1.41938 1.102849,2.7733 1.986247,3.96809 -0.880765,-0.90416 -1.647243,-1.9267 -2.278267,-3.02283 -1.400829,-2.43336 -2.15803,-5.25162 -2.044767,-8.04691 0.09625,-2.37552 0.82305,-4.72733 2.099788,-6.73034 1.806224,-2.83367 4.740868,-4.93271 8.000084,-5.74844 -0.003,-0.16664 -0.005,-0.33782 -0.009,-0.50326 l -3.4e-4,-0.002 c -0.001,-0.07 -0.002,-0.14091 -0.003,-0.21113 -3.50103,0.83095 -6.64297,3.05179 -8.578218,6.08789 -1.345483,2.11084 -2.107753,4.58125 -2.209003,7.08022 -0.118023,2.91278 0.659817,5.82736 2.096849,8.35239 -0.835215,-1.07346 -1.538957,-2.23495 -2.057817,-3.47395 -1.677215,-4.00509 -1.357217,-8.77943 0.51597,-12.75923 1.29907,-2.76002 3.326577,-5.19059 5.859435,-6.84189 1.355407,-0.88366 2.857296,-1.5434 4.422854,-1.95542 0.0361,-0.63327 0.0937,-1.26599 0.17815,-1.89542 -1.98205,0.44013 -3.88213,1.23393 -5.583433,2.34309 -2.840221,1.85168 -5.073775,4.53838 -6.506221,7.58178 -2.074359,4.4072 -2.449796,9.67776 -0.546463,14.22281 1.201296,2.86863 3.226155,5.29939 5.579805,7.23433 0.263687,0.21678 0.533195,0.42842 0.807812,0.63418 z"
         transform="rotate(144,105.30643,152.47962)"
         inkscape:label="path13" /><path
         id="path77"
         style="color:#000000;display:inline;fill:#000000;stroke:none;stroke-width:0.997844;-inkscape-stroke:none"
         d="m 100.68764,117.8073 c -1.982051,0.44013 -3.882729,1.23389 -5.584032,2.34305 -2.840221,1.85168 -5.073334,4.53827 -6.505779,7.58167 -2.074359,4.4072 -2.450416,9.67797 -0.547083,14.22302 1.201296,2.86863 3.226641,5.29936 5.580291,7.23431 2.109495,1.73424 4.573906,3.14506 7.310633,3.76186 1.37365,0.31001 2.79184,0.41239 4.19529,0.30444 l -0.13868,-1.79475 c -0.0348,0.003 -0.0698,0.002 -0.10462,0.004 l 0.003,-0.0462 c -1.35481,-0.0952 -2.68849,-0.51117 -3.8577,-1.20525 -1.052969,-0.62508 -1.974909,-1.4773 -2.652831,-2.49219 -0.760114,-1.13796 -1.212225,-2.48744 -1.279409,-3.85401 -0.08289,-1.68595 0.422648,-3.39886 1.366879,-4.80512 0.695736,-1.03618 1.631791,-1.91446 2.726381,-2.48224 0.61616,-0.31962 1.28268,-0.54046 1.96683,-0.65427 -0.15454,-0.20406 -0.2992,-0.41522 -0.43743,-0.63053 -0.64228,0.13682 -1.26685,0.35885 -1.85036,0.66153 -1.211223,0.62829 -2.227407,1.59001 -2.98276,2.71497 -1.026078,1.52817 -1.578681,3.38151 -1.487773,5.23073 0.07366,1.49822 0.56777,2.96533 1.398624,4.2092 0.466136,0.69784 1.034215,1.32131 1.67518,1.85626 -1.660425,-1.088 -2.93811,-2.7449 -3.73624,-4.58909 -0.710036,-1.64063 -1.05588,-3.44995 -0.859445,-5.20704 0.195452,-1.74828 0.928609,-3.433 2.017317,-4.83008 1.144209,-1.46832 2.682823,-2.62847 4.406417,-3.33186 -0.0629,-0.22753 -0.12222,-0.4553 -0.17604,-0.68394 -1.873814,0.74646 -3.540696,1.99472 -4.780781,3.58607 -1.162216,1.49142 -1.953039,3.29061 -2.164449,5.18163 -0.212385,1.89974 0.162665,3.82627 0.914106,5.56257 0.634076,1.46511 1.555694,2.82563 2.733415,3.91079 -0.221216,-0.15129 -0.438189,-0.30902 -0.646788,-0.47719 -1.817574,-1.46529 -3.127042,-3.53602 -3.812318,-5.78312 -0.643191,-2.1091 -0.750974,-4.38263 -0.308875,-6.54274 0.36487,-1.78277 1.106716,-3.49401 2.214952,-4.92418 1.346591,-1.73777 3.246108,-3.04784 5.346258,-3.69863 -0.0221,-0.23739 -0.0409,-0.47515 -0.0564,-0.71359 -2.300425,0.677 -4.373586,2.08664 -5.842919,3.9828 -1.181096,1.5242 -1.962844,3.33339 -2.347385,5.21227 -0.465881,2.27632 -0.353169,4.66466 0.324564,6.88702 0.432753,1.41904 1.102593,2.77281 1.985666,3.96738 -0.880458,-0.90398 -1.646837,-1.92577 -2.277687,-3.0216 -1.400829,-2.43336 -2.158493,-5.25183 -2.04523,-8.04712 0.09625,-2.37552 0.822987,-4.72736 2.099725,-6.73037 1.806224,-2.83366 4.741506,-4.93262 8.000716,-5.74835 -0.003,-0.16664 -0.005,-0.33796 -0.009,-0.5034 l 3.4e-4,-0.002 c -0.001,-0.07 -0.002,-0.14077 -0.003,-0.21099 -3.501105,0.83091 -6.643571,3.05164 -8.578856,6.0878 -1.345484,2.11084 -2.107518,4.58141 -2.208769,7.08039 -0.118051,2.91347 0.660443,5.82833 2.098138,8.35378 -0.835823,-1.07396 -1.540202,-2.23538 -2.059348,-3.47507 -1.677214,-4.00509 -1.357479,-8.77955 0.515707,-12.75935 1.299071,-2.76002 3.327028,-5.19073 5.859885,-6.84203 1.355408,-0.88366 2.857216,-1.54339 4.422773,-1.95541 0.0361,-0.63327 0.094,-1.26619 0.17846,-1.89562 z"
         transform="rotate(-72.000001,105.30643,152.47961)"
         inkscape:label="path14" /><path
         id="path59"
         style="color:#000000;display:inline;fill:#000000;stroke:none;stroke-width:0.997844;-inkscape-stroke:none"
         d="m 87.614092,130.29179 c -1.151281,3.79854 -1.109342,7.97054 0.437117,11.6634 1.201295,2.86862 3.226168,5.29913 5.579818,7.23407 2.109495,1.73424 4.573826,3.1452 7.310553,3.762 1.37365,0.31001 2.79173,0.41258 4.19518,0.30463 l -0.13848,-1.79461 c -0.0348,0.003 -0.0698,0.002 -0.10456,0.004 l 0.003,-0.0468 c -1.35481,-0.0952 -2.68831,-0.51094 -3.85752,-1.20502 -1.052973,-0.62508 -1.974513,-1.47755 -2.652436,-2.49245 -0.760114,-1.13796 -1.212564,-2.48762 -1.279748,-3.85419 -0.08289,-1.68594 0.422417,-3.39853 1.366649,-4.80478 0.695736,-1.03619 1.632175,-1.91452 2.726775,-2.4823 0.61616,-0.31962 1.28238,-0.54042 1.96653,-0.65423 -0.15454,-0.20406 -0.29913,-0.41527 -0.43736,-0.63058 -0.64228,0.13682 -1.26694,0.35884 -1.85045,0.66152 -1.21122,0.62828 -2.226875,1.59002 -2.982228,2.71498 -1.026078,1.52817 -1.579174,3.38171 -1.488266,5.23093 0.07366,1.49822 0.56762,2.96567 1.398474,4.20954 0.466352,0.69817 1.035397,1.32135 1.676727,1.85647 -1.661138,-1.08799 -2.939574,-2.74515 -3.737939,-4.58987 -0.710035,-1.64063 -1.055678,-3.44982 -0.859242,-5.2069 0.195451,-1.74828 0.928976,-3.43307 2.017684,-4.83016 1.144209,-1.46832 2.682572,-2.62804 4.40617,-3.33143 -0.0629,-0.22753 -0.12215,-0.45557 -0.17597,-0.68421 -1.873815,0.74646 -3.540668,1.99492 -4.780753,3.58626 -1.162216,1.49142 -1.953134,3.2908 -2.164544,5.18181 -0.212385,1.89974 0.162957,3.82595 0.914398,5.56225 0.633994,1.46492 1.555315,2.82555 2.732816,3.91065 -0.221164,-0.15127 -0.437801,-0.30922 -0.646354,-0.47735 -1.817573,-1.46529 -3.127415,-3.53582 -3.812691,-5.78292 -0.643191,-2.1091 -0.750462,-4.38268 -0.308363,-6.54279 0.364869,-1.78277 1.106799,-3.49398 2.215035,-4.92415 1.346591,-1.73777 3.245841,-3.04795 5.345986,-3.69874 -0.0221,-0.23739 -0.0412,-0.47495 -0.0567,-0.71339 -2.300424,0.677 -4.373092,2.08629 -5.842426,3.98245 -1.181095,1.52419 -1.96329,3.33357 -2.347831,5.21245 -0.465881,2.27632 -0.353028,4.6648 0.324704,6.88715 0.432917,1.41958 1.103506,2.77337 1.987079,3.96828 -0.880975,-0.90429 -1.64798,-1.92629 -2.279122,-3.02264 -1.400829,-2.43335 -2.157942,-5.25166 -2.044679,-8.04696 0.09625,-2.37552 0.822612,-4.72736 2.099349,-6.73037 1.806225,-2.83367 4.741494,-4.93284 8.000706,-5.74857 -0.003,-0.16664 -0.005,-0.33799 -0.009,-0.50343 l -2e-5,-0.002 c -9.9e-4,-0.0698 -0.002,-0.14122 -0.003,-0.21128 -3.500862,0.83103 -6.64294,3.0515 -8.578112,6.08747 -1.345484,2.11085 -2.107546,4.58162 -2.208797,7.0806 -0.118073,2.91401 0.660614,5.82948 2.098824,8.35525 -0.836228,-1.07429 -1.540983,-2.23683 -2.06032,-3.47697 -1.677214,-4.00509 -1.35706,-8.77954 0.516126,-12.75933 1.299071,-2.76003 3.326268,-5.19031 5.859125,-6.84161 1.355408,-0.88366 2.857596,-1.54354 4.423154,-1.95556 0.0361,-0.63327 0.094,-1.26596 0.17844,-1.89539 -1.98205,0.44013 -3.88229,1.23385 -5.583592,2.34301 -2.840221,1.85168 -5.073597,4.53835 -6.506042,7.58175 -0.388942,0.82635 -0.718124,1.68301 -0.983804,2.55959 z m 12.844998,-7.07881 c 3.7e-4,-9e-5 7.7e-4,-8e-5 10e-4,-1.7e-4 l -9.8e-4,-3.2e-4 z"
         transform="rotate(72.000001,105.30643,152.47962)"
         inkscape:label="path15" /></g><g
       id="g64"
       inkscape:transform-center-x="-19.283044"
       inkscape:transform-center-y="-11.804158"
       transform="rotate(72.000001,105.30643,152.47962)"
       inkscape:label="GrupoTablas"
       style="display:inline"><path
         id="path64"
         style="display:inline;fill:#000000;stroke-width:0.264583"
         d="m 104.91711,109.84756 -10e-4,0.002 c -0.79393,1.1874 -1.44064,2.47362 -1.91927,3.8194 -0.56784,1.59665 -0.89798,3.26963 -1.10846,4.95112 -0.34284,2.73898 -0.37108,5.5172 -0.0837,8.26255 0.12227,1.35743 0.33083,2.70663 0.62477,4.03748 0.13581,0.61489 0.29019,1.2261 0.46198,1.83193 0.26763,0.88057 0.7832,1.68434 1.47227,2.29443 0.0778,0.0689 0.15824,0.13529 0.24804,0.18759 0.0898,0.0522 0.18981,0.0901 0.29352,0.0961 0.004,2.2e-4 0.007,-4.9e-4 0.0109,-5.1e-4 v 0.002 c 0.004,-1.4e-4 0.008,7.5e-4 0.0119,5.1e-4 0.10371,-0.006 0.20374,-0.0439 0.29352,-0.0961 0.0898,-0.0523 0.17027,-0.11873 0.24805,-0.18759 0.68907,-0.61009 1.20463,-1.41386 1.47226,-2.29443 0.17179,-0.60583 0.32618,-1.21704 0.46199,-1.83193 0.29394,-1.33085 0.5025,-2.68005 0.62477,-4.03748 0.28737,-2.74535 0.25914,-5.52357 -0.0837,-8.26255 -0.21048,-1.68149 -0.54062,-3.35447 -1.10846,-4.95112 -0.47862,-1.34578 -1.12533,-2.632 -1.91926,-3.8194 z"
         inkscape:label="path1" /><path
         id="path70"
         style="display:inline;fill:#000000;stroke-width:0.264583"
         d="m 104.91711,109.84756 -10e-4,0.002 c -0.79393,1.1874 -1.44064,2.47362 -1.91927,3.8194 -0.56784,1.59665 -0.89798,3.26963 -1.10846,4.95112 -0.34284,2.73898 -0.37108,5.5172 -0.0837,8.26255 0.12227,1.35743 0.33083,2.70663 0.62477,4.03748 0.13581,0.61489 0.29019,1.2261 0.46198,1.83193 0.26763,0.88057 0.7832,1.68434 1.47227,2.29443 0.0778,0.0689 0.15824,0.13529 0.24804,0.18759 0.0898,0.0522 0.18981,0.0901 0.29352,0.0961 0.004,2.2e-4 0.007,-4.9e-4 0.0109,-5.1e-4 v 0.002 c 0.004,-1.4e-4 0.008,7.5e-4 0.0119,5.1e-4 0.10371,-0.006 0.20374,-0.0439 0.29352,-0.0961 0.0898,-0.0523 0.17027,-0.11873 0.24805,-0.18759 0.68907,-0.61009 1.20463,-1.41386 1.47226,-2.29443 0.17179,-0.60583 0.32618,-1.21704 0.46199,-1.83193 0.29394,-1.33085 0.5025,-2.68005 0.62477,-4.03748 0.28737,-2.74535 0.25914,-5.52357 -0.0837,-8.26255 -0.21048,-1.68149 -0.54062,-3.35447 -1.10846,-4.95112 -0.47862,-1.34578 -1.12533,-2.632 -1.91926,-3.8194 z"
         inkscape:label="path2"
         transform="rotate(71.999999,105.30643,152.47962)" /><path
         id="path76"
         style="display:inline;fill:#000000;stroke-width:0.264583"
         d="m 104.91711,109.84756 -10e-4,0.002 c -0.79393,1.1874 -1.44064,2.47362 -1.91927,3.8194 -0.56784,1.59665 -0.89798,3.26963 -1.10846,4.95112 -0.34284,2.73898 -0.37108,5.5172 -0.0837,8.26255 0.12227,1.35743 0.33083,2.70663 0.62477,4.03748 0.13581,0.61489 0.29019,1.2261 0.46198,1.83193 0.26763,0.88057 0.7832,1.68434 1.47227,2.29443 0.0778,0.0689 0.15824,0.13529 0.24804,0.18759 0.0898,0.0522 0.18981,0.0901 0.29352,0.0961 0.004,2.2e-4 0.007,-4.9e-4 0.0109,-5.1e-4 v 0.002 c 0.004,-1.4e-4 0.008,7.5e-4 0.0119,5.1e-4 0.10371,-0.006 0.20374,-0.0439 0.29352,-0.0961 0.0898,-0.0523 0.17027,-0.11873 0.24805,-0.18759 0.68907,-0.61009 1.20463,-1.41386 1.47226,-2.29443 0.17179,-0.60583 0.32618,-1.21704 0.46199,-1.83193 0.29394,-1.33085 0.5025,-2.68005 0.62477,-4.03748 0.28737,-2.74535 0.25914,-5.52357 -0.0837,-8.26255 -0.21048,-1.68149 -0.54062,-3.35447 -1.10846,-4.95112 -0.47862,-1.34578 -1.12533,-2.632 -1.91926,-3.8194 z"
         inkscape:label="path3"
         transform="rotate(144,105.30643,152.47962)" /><path
         id="path82"
         style="display:inline;fill:#000000;stroke-width:0.264583"
         d="m 104.91711,109.84756 -10e-4,0.002 c -0.79393,1.1874 -1.44064,2.47362 -1.91927,3.8194 -0.56784,1.59665 -0.89798,3.26963 -1.10846,4.95112 -0.34284,2.73898 -0.37108,5.5172 -0.0837,8.26255 0.12227,1.35743 0.33083,2.70663 0.62477,4.03748 0.13581,0.61489 0.29019,1.2261 0.46198,1.83193 0.26763,0.88057 0.7832,1.68434 1.47227,2.29443 0.0778,0.0689 0.15824,0.13529 0.24804,0.18759 0.0898,0.0522 0.18981,0.0901 0.29352,0.0961 0.004,2.2e-4 0.007,-4.9e-4 0.0109,-5.1e-4 v 0.002 c 0.004,-1.4e-4 0.008,7.5e-4 0.0119,5.1e-4 0.10371,-0.006 0.20374,-0.0439 0.29352,-0.0961 0.0898,-0.0523 0.17027,-0.11873 0.24805,-0.18759 0.68907,-0.61009 1.20463,-1.41386 1.47226,-2.29443 0.17179,-0.60583 0.32618,-1.21704 0.46199,-1.83193 0.29394,-1.33085 0.5025,-2.68005 0.62477,-4.03748 0.28737,-2.74535 0.25914,-5.52357 -0.0837,-8.26255 -0.21048,-1.68149 -0.54062,-3.35447 -1.10846,-4.95112 -0.47862,-1.34578 -1.12533,-2.632 -1.91926,-3.8194 z"
         inkscape:label="path4"
         transform="rotate(-144,105.30643,152.47962)" /><path
         id="path1-3"
         style="display:inline;fill:#000000;stroke-width:0.264583"
         d="m 104.91711,109.84756 -10e-4,0.002 c -0.79393,1.1874 -1.44064,2.47362 -1.91927,3.8194 -0.56784,1.59665 -0.89798,3.26963 -1.10846,4.95112 -0.34284,2.73898 -0.37108,5.5172 -0.0837,8.26255 0.12227,1.35743 0.33083,2.70663 0.62477,4.03748 0.13581,0.61489 0.29019,1.2261 0.46198,1.83193 0.26763,0.88057 0.7832,1.68434 1.47227,2.29443 0.0778,0.0689 0.15824,0.13529 0.24804,0.18759 0.0898,0.0522 0.18981,0.0901 0.29352,0.0961 0.004,2.2e-4 0.007,-4.9e-4 0.0109,-5.1e-4 v 0.002 c 0.004,-1.4e-4 0.008,7.5e-4 0.0119,5.1e-4 0.10371,-0.006 0.20374,-0.0439 0.29352,-0.0961 0.0898,-0.0523 0.17027,-0.11873 0.24805,-0.18759 0.68907,-0.61009 1.20463,-1.41386 1.47226,-2.29443 0.17179,-0.60583 0.32618,-1.21704 0.46199,-1.83193 0.29394,-1.33085 0.5025,-2.68005 0.62477,-4.03748 0.28737,-2.74535 0.25914,-5.52357 -0.0837,-8.26255 -0.21048,-1.68149 -0.54062,-3.35447 -1.10846,-4.95112 -0.47862,-1.34578 -1.12533,-2.632 -1.91926,-3.8194 z"
         inkscape:label="path5"
         transform="rotate(-72,105.30643,152.47962)" /></g></g></svg>
